<svg width="325" height="325" viewBox="0 0 325 325" fill="none" xmlns="http://www.w3.org/2000/svg">
<path d="M148.692 296.539C147.635 296.458 146.43 296.215 145.077 295.81C143.704 295.404 142.712 295.006 142.1 294.618L142.545 288.816L143.682 288.903C145.276 292.174 147.589 293.927 150.62 294.159C151.936 294.26 153.172 293.964 154.329 293.271C155.464 292.596 156.393 291.594 157.117 290.265C157.839 288.957 158.265 287.455 158.396 285.76C158.546 283.806 158.384 281.998 157.909 280.337C157.415 278.674 156.587 277.307 155.426 276.235C154.245 275.161 152.737 274.554 150.902 274.413C149.207 274.283 146.676 275.372 143.31 277.681L142.523 276.177L148.355 272.322C149.113 272.119 149.843 272.005 150.547 271.979C151.233 271.931 151.975 271.938 152.772 271.999C154.866 272.16 156.682 272.811 158.219 273.952C159.756 275.093 160.905 276.585 161.666 278.429C162.426 280.292 162.718 282.361 162.544 284.634C162.365 286.967 161.521 289.069 160.014 290.939C158.505 292.829 156.7 294.265 154.598 295.247C152.495 296.249 150.527 296.68 148.692 296.539Z" fill="white"/>
<path d="M131.711 285.526C130.425 285.226 129.356 284.616 128.503 283.697C127.626 282.794 127.039 281.701 126.744 280.42C126.428 279.135 126.432 277.8 126.756 276.418C127.107 274.918 127.895 273.613 129.12 272.503C130.34 271.413 131.736 270.63 133.305 270.155C134.85 269.695 136.266 269.616 137.551 269.916C138.836 270.217 139.918 270.819 140.795 271.723C141.648 272.642 142.232 273.744 142.548 275.029C142.843 276.311 142.83 277.642 142.506 279.025C142.155 280.525 141.369 281.82 140.149 282.91C138.924 284.02 137.538 284.805 135.993 285.265C134.423 285.74 132.996 285.827 131.711 285.526ZM133.979 283.469C136.18 283.984 137.647 282.674 138.381 279.539C138.813 277.689 138.777 276.047 138.27 274.614C137.758 273.2 136.763 272.32 135.283 271.974C133.082 271.459 131.613 272.779 130.875 275.933C130.446 277.764 130.488 279.386 130.999 280.8C131.506 282.233 132.499 283.123 133.979 283.469Z" fill="white"/>
<path d="M112.205 261.516L117.492 263.647L116.684 265.65L120.102 264.634C120.755 264.725 121.499 264.938 122.334 265.275C123.558 265.768 124.535 266.529 125.264 267.556C125.967 268.594 126.376 269.772 126.491 271.091C126.588 272.402 126.371 273.716 125.84 275.033C125.265 276.461 124.291 277.621 122.918 278.513C121.538 279.423 120.049 279.987 118.451 280.206C116.827 280.436 115.404 280.304 114.179 279.81C113.159 279.399 112.347 278.738 111.744 277.826L109.434 283.558L111.215 286.281L110.868 287.144L105.392 287.007L104.335 286.581L113.284 264.377L111.2 262.405L112.205 261.516ZM119.962 267.068C119.405 266.844 118.847 266.705 118.286 266.651C117.699 266.609 117.001 266.683 116.191 266.874L113.634 273.219C113.371 274.191 113.504 275.118 114.033 275.999C114.536 276.892 115.437 277.6 116.735 278.123C118.831 278.968 120.481 277.897 121.685 274.911C122.388 273.167 122.617 271.556 122.372 270.077C122.119 268.617 121.316 267.614 119.962 267.068Z" fill="white"/>
<path d="M103.607 256.215C104.376 256.487 105.242 256.908 106.205 257.481C107.34 258.155 108.189 259.056 108.752 260.182C109.289 261.315 109.513 262.542 109.426 263.863C109.322 265.174 108.906 266.439 108.181 267.66C107.394 268.984 106.254 269.981 104.761 270.653C103.258 271.341 101.701 271.672 100.088 271.644C98.4488 271.623 97.0617 271.275 95.927 270.601C94.2939 269.63 93.4136 268.234 93.2861 266.413C93.1415 264.582 93.6978 262.61 94.9549 260.495L104.496 266.167C105.262 264.645 105.577 263.215 105.441 261.878C105.288 260.53 104.61 259.499 103.406 258.783C102.289 258.119 100.183 258.042 97.0873 258.552L96.8963 257.112L103.607 256.215ZM98.7105 269.324C100.567 270.428 102.295 269.733 103.893 267.24L97.8591 263.653C97.462 264.673 97.2063 265.475 97.092 266.058C96.9503 266.649 96.9938 267.222 97.2224 267.776C97.4236 268.338 97.9197 268.854 98.7105 269.324Z" fill="white"/>
<path d="M76.2041 245.749L74.2635 245.871L68.0161 238.861L68.688 238.262L70.6286 238.14L76.876 245.15L76.2041 245.749Z" fill="white"/>
<path d="M37.5665 214.382C37.1329 213.415 36.7707 212.24 36.48 210.858C36.181 209.458 36.0558 208.396 36.1042 207.673L41.415 205.293L41.8813 206.333C39.7687 209.296 39.3342 212.165 40.5778 214.939C41.1178 216.144 41.9686 217.088 43.1304 217.773C44.2657 218.447 45.5897 218.785 47.1026 218.787C48.5972 218.796 50.1202 218.453 51.6714 217.758C53.4599 216.956 54.9706 215.95 56.2034 214.74C57.4281 213.511 58.2339 212.131 58.6209 210.598C58.9997 209.048 58.8128 207.433 58.0601 205.754C57.3647 204.203 55.1985 202.5 51.5617 200.645L52.5075 199.235L58.6802 202.517C59.2202 203.086 59.6699 203.673 60.0292 204.279C60.3986 204.859 60.747 205.514 61.0742 206.244C61.9333 208.16 62.2288 210.066 61.9607 211.961C61.6926 213.857 60.9305 215.579 59.6745 217.129C58.4001 218.686 56.7227 219.932 54.6422 220.864C52.5069 221.821 50.2577 222.084 47.8947 221.653C45.5133 221.231 43.3894 220.331 41.5228 218.954C39.638 217.585 38.3192 216.061 37.5665 214.382Z" fill="white"/>
<path d="M38.327 191.172C38.1521 190.536 38.1719 189.929 38.3866 189.351C38.6012 188.774 38.98 188.265 39.5229 187.825L42.4486 189.075L42.7507 190.174C42.2897 190.384 41.992 190.621 41.8574 190.886C41.6983 191.137 41.6664 191.437 41.7618 191.784C41.8784 192.208 42.1187 192.629 42.4826 193.048C42.8219 193.452 43.3823 193.869 44.1637 194.297L52.7841 191.928L52.9151 187.536L54.2312 187.797L56.8465 197.314L55.9498 197.561L53.2173 195.543L45.0308 197.792L44.2341 200.78L43.3373 201.027L39.5481 196.748L42.8597 194.873L38.9667 192.707C38.7011 192.345 38.4782 191.836 38.298 191.18L38.327 191.172Z" fill="white"/>
<path d="M51.7608 172.496C52.0115 173.273 52.201 174.217 52.3295 175.33C52.4809 176.641 52.2796 177.862 51.7256 178.993C51.1495 180.107 50.3098 181.029 49.2064 181.761C48.1007 182.472 46.8425 182.909 45.4319 183.072C43.902 183.249 42.4176 182.947 40.9787 182.167C39.5198 181.389 38.3128 180.351 37.3575 179.051C36.3801 177.735 35.8157 176.421 35.6643 175.11C35.4464 173.222 36.0228 171.676 37.3937 170.471C38.7622 169.246 40.6684 168.492 43.1121 168.21L44.3851 179.237C46.0601 178.923 47.3882 178.306 48.3693 177.388C49.3482 176.449 49.7573 175.285 49.5968 173.894C49.4477 172.602 48.2322 170.88 45.9503 168.728L46.9795 167.703L51.7608 172.496ZM38.3672 176.549C38.6149 178.695 40.2147 179.648 43.1667 179.408L42.3616 172.434C41.3094 172.737 40.5166 173.019 39.9832 173.282C39.4277 173.528 38.9986 173.909 38.696 174.427C38.3713 174.928 38.2617 175.635 38.3672 176.549Z" fill="white"/>
<path d="M51.6315 149.291L51.4132 154.987L48.8051 154.887L51.3433 158.377C51.4878 158.782 51.5486 159.285 51.5256 159.885C51.4598 161.603 50.9822 162.836 50.0929 163.583C49.2045 164.309 48.1607 164.649 46.9615 164.603C46.2421 164.576 45.5426 164.289 44.863 163.742C44.1834 163.196 43.5522 162.431 42.9695 161.448L43.2292 154.673L41.3106 154.6C40.0115 154.55 39.0788 154.864 38.5124 155.543C37.9467 156.202 37.6409 157.131 37.595 158.33C37.5475 159.569 38.2387 161.117 39.6686 162.973L38.495 163.829L35.243 159.381C35.1137 158.575 35.0706 157.613 35.1135 156.494C35.1832 154.675 35.6869 153.283 36.6245 152.318C37.5422 151.353 38.8504 150.903 40.5491 150.968L49.3027 151.303L50.4553 148.645L51.6315 149.291ZM49.0143 158.828C49.061 157.609 48.5516 156.278 47.486 154.836L44.4583 154.72L44.2549 160.026C44.5647 160.298 44.8772 160.501 45.1923 160.633C45.5083 160.745 45.8561 160.808 46.2358 160.823C46.9753 160.851 47.6221 160.686 48.1762 160.327C48.7104 159.967 48.9898 159.467 49.0143 158.828Z" fill="white"/>
<path d="M53.9547 137.58C54.0242 138.062 53.9961 138.627 53.8704 139.275C53.5544 140.905 52.9 142.021 51.9072 142.623C50.8986 143.201 49.501 143.317 47.7142 142.971L39.1145 141.303L38.4976 144.484L37.2901 144.249L31.8666 137.391L32.0837 136.272L38.5924 137.535L39.6205 132.233L40.828 132.468L39.7999 137.769L48.7531 139.505C50.3434 139.814 51.2871 139.202 51.5841 137.671C51.6641 137.258 51.6519 136.848 51.5475 136.441C51.447 136.014 51.2261 135.472 50.885 134.815L52.1755 134.149L53.9547 137.58Z" fill="white"/>
<path d="M58.5734 122.391C58.4536 123.198 58.2043 124.129 57.8258 125.183C57.3796 126.425 56.6574 127.43 55.6591 128.198C54.6487 128.94 53.4869 129.394 52.1735 129.56C50.867 129.707 49.5454 129.54 48.209 129.06C46.7597 128.54 45.5633 127.611 44.6199 126.273C43.6577 124.929 43.0367 123.462 42.7571 121.874C42.4653 120.261 42.5425 118.833 42.9887 117.591C43.6309 115.802 44.8337 114.672 46.5969 114.201C48.3669 113.71 50.4095 113.881 52.7247 114.712L48.9728 125.159C50.6133 125.62 52.0769 125.657 53.3638 125.269C54.6574 124.863 55.5408 124.001 56.014 122.683C56.4534 121.46 56.1282 119.377 55.0383 116.436L56.4155 115.974L58.5734 122.391ZM44.7722 120.08C44.0421 122.113 45.053 123.677 47.805 124.771L50.1779 118.164C49.1006 117.969 48.2647 117.87 47.67 117.869C47.0633 117.843 46.5094 117.994 46.0084 118.324C45.4952 118.629 45.0832 119.214 44.7722 120.08Z" fill="white"/>
<path d="M63.6312 93.4968L63.1419 91.6149L68.8344 84.1471L69.5501 84.6927L70.0395 86.5746L64.347 94.0424L63.6312 93.4968Z" fill="white"/>
<path d="M87.0678 49.594C87.9348 48.9841 89.019 48.4049 90.3203 47.8564C91.638 47.2963 92.6564 46.9712 93.3755 46.8811L96.7239 51.6415L95.7914 52.2973C92.4799 50.7876 89.5809 50.9072 87.0944 52.6562C86.0148 53.4156 85.2494 54.4308 84.7985 55.7016C84.3523 56.9446 84.2727 58.3088 84.5595 59.7942C84.8348 61.2633 85.4615 62.6931 86.4396 64.0836C87.5672 65.6867 88.8424 66.9782 90.2651 67.9581C91.7043 68.9264 93.2129 69.4547 94.7909 69.5428C96.3853 69.6195 97.935 69.1285 99.44 68.07C100.83 67.0919 102.09 64.6412 103.218 60.7178L104.783 61.3778L102.736 68.0625C102.28 68.7009 101.789 69.2542 101.262 69.7223C100.764 70.1953 100.187 70.662 99.5329 71.1222C97.8153 72.3304 96.0005 72.9833 94.0887 73.0811C92.1768 73.1788 90.3408 72.7586 88.5805 71.8205C86.8088 70.866 85.2671 69.4563 83.9554 67.5914C82.6091 65.6775 81.9227 63.5195 81.8959 61.1176C81.8577 58.6993 82.3367 56.4429 83.3331 54.3483C84.3179 52.2373 85.5628 50.6526 87.0678 49.594Z" fill="white"/>
<path d="M107.175 47.2858C108.358 46.7001 109.571 46.4901 110.814 46.656C112.065 46.795 113.213 47.2646 114.256 48.0647C115.317 48.856 116.163 49.8879 116.793 51.1604C117.477 52.5405 117.699 54.0485 117.46 55.6844C117.212 57.3023 116.634 58.7938 115.725 60.1587C114.825 61.4969 113.784 62.4588 112.601 63.0445C111.418 63.6302 110.201 63.8535 108.949 63.7145C107.707 63.5486 106.555 63.0701 105.493 62.2789C104.45 61.4787 103.613 60.4424 102.983 59.1698C102.3 57.7898 102.082 56.2907 102.33 54.6728C102.569 53.0369 103.138 51.5499 104.038 50.2117C104.946 48.8468 105.992 47.8715 107.175 47.2858ZM106.734 50.3162C104.709 51.319 104.41 53.2632 105.839 56.1489C106.682 57.8516 107.755 59.0946 109.058 59.8778C110.352 60.6431 111.68 60.6885 113.042 60.0141C115.068 59.0113 115.361 57.0581 113.924 54.1545C113.09 52.4697 112.026 51.2447 110.732 50.4794C109.429 49.6961 108.096 49.6417 106.734 50.3162Z" fill="white"/>
<path d="M137.743 53.3537L132.308 55.0735L129.258 45.4347C128.926 44.386 128.532 43.7032 128.075 43.3862C127.618 43.0693 126.97 43.0436 126.131 43.3091C125.502 43.5083 124.909 43.8218 124.352 44.2498C123.814 44.6717 123.228 45.3396 122.595 46.2534L125.337 54.9198L128.228 55.1062L128.018 56.4313L120.038 58.9567L119.758 58.07L121.67 55.2623L119.108 47.168L116.092 46.4863L115.811 45.5996L119.942 41.6492L122.062 45.0688L125.101 40.5514C125.453 40.2722 125.953 40.0299 126.602 39.8248C127.898 39.4144 129.055 39.489 130.071 40.0485C131.081 40.5889 131.8 41.536 132.229 42.8898L135.053 51.8136L137.953 52.0286L137.743 53.3537Z" fill="white"/>
<path d="M155.565 58.4532L145.811 59.9599L145.669 59.0408L149.451 56.2102L148.439 49.6579L146.021 52.2778C145.413 52.5336 144.664 52.7302 143.774 52.8676C142.47 53.0691 141.242 52.9147 140.091 52.4045C138.956 51.8715 138.002 51.0677 137.229 49.9931C136.476 48.9155 135.991 47.675 135.774 46.2716C135.539 44.7496 135.783 43.2548 136.508 41.787C137.229 40.2994 138.221 39.0535 139.482 38.0492C140.76 37.022 142.052 36.4077 143.356 36.2062C144.878 35.9711 146.263 36.3542 147.51 37.3555L148.672 35.0512L149.799 34.8772L153.142 56.5205L155.975 57.1757L155.565 58.4532ZM144.897 50.1139C145.49 50.0224 146.041 49.8563 146.551 49.6157C147.077 49.3523 147.639 48.9316 148.238 48.3534L147.194 41.5936C146.922 40.6236 146.334 39.8948 145.429 39.4073C144.541 38.8969 143.405 38.7486 142.021 38.9623C139.788 39.3073 138.917 41.0709 139.408 44.2531C139.695 46.1111 140.322 47.6131 141.288 48.759C142.251 49.8852 143.454 50.3368 144.897 50.1139Z" fill="white"/>
<path d="M171.558 51L165.858 51V47.88L162.048 51.06C161.628 51.22 161.078 51.3 160.398 51.3C159.038 51.3 157.958 50.89 157.158 50.07C156.358 49.23 155.958 48.1 155.958 46.68V39.51L153.288 37.95V37.02L158.418 34.5H159.558V45.18C159.558 46.28 159.728 47.05 160.068 47.49C160.408 47.93 161.018 48.15 161.898 48.15C162.518 48.15 163.128 48.04 163.728 47.82C164.328 47.58 165.038 47.12 165.858 46.44V39.51L163.188 37.95V37.02L168.318 34.5H169.458V48.75L172.158 49.8L171.558 51Z" fill="white"/>
<path d="M181.376 52.7023C180.561 52.7383 179.6 52.6708 178.493 52.4999C177.188 52.2984 176.064 51.7807 175.12 50.9469C174.2 50.0963 173.533 49.0422 173.12 47.7844C172.727 46.5297 172.639 45.2007 172.855 43.7973C173.09 42.2753 173.775 40.924 174.908 39.7432C176.045 38.5426 177.366 37.6538 178.872 37.0769C180.4 36.4833 181.817 36.2872 183.121 36.4887C184.999 36.7788 186.337 37.7444 187.136 39.3855C187.955 41.0298 188.176 43.0675 187.801 45.4986L176.831 43.8042C176.69 45.5026 176.932 46.9466 177.558 48.136C178.204 49.3285 179.218 50.0317 180.602 50.2454C181.887 50.4438 183.869 49.728 186.549 48.0981L187.265 49.3621L181.376 52.7023ZM181.017 38.7136C178.882 38.3839 177.54 39.674 176.989 42.5841L183.927 43.6557C183.914 42.5609 183.851 41.7215 183.739 41.1375C183.65 40.5368 183.395 40.0219 182.976 39.5929C182.579 39.1471 181.926 38.854 181.017 38.7136Z" fill="white"/>
<path d="M205.087 42.1466C205.717 42.3457 206.215 42.6923 206.583 43.1864C206.951 43.6805 207.172 44.2749 207.246 44.9695L204.607 46.7461L203.52 46.4021C203.595 45.9013 203.557 45.5223 203.408 45.2653C203.284 44.9952 203.05 44.8058 202.707 44.6972C202.287 44.5644 201.803 44.537 201.254 44.615C200.73 44.6799 200.076 44.9239 199.292 45.347L196.594 53.8704L200.209 56.3675L199.275 57.3305L189.865 54.3526L190.146 53.4659L193.325 52.2694L195.886 44.175L193.812 41.8821L194.092 40.9955L199.743 40.1407L199.517 43.9394L203.451 41.8489C203.9 41.8231 204.448 41.9128 205.096 42.118L205.087 42.1466Z" fill="white"/>
<path d="M226.902 60.8539L228.764 60.2928L236.444 65.6951L235.927 66.4312L234.065 66.9922L226.385 61.59L226.902 60.8539Z" fill="white"/>
<path d="M252.492 97.4169C252.086 97.1481 251.683 96.7512 251.283 96.2263C250.276 94.9061 249.879 93.6752 250.09 92.5335C250.329 91.3956 251.172 90.275 252.62 89.1716L259.586 83.8611L257.622 81.2844L258.601 80.5387L267.329 81.0526L268.02 81.9592L262.747 85.9785L266.021 90.2731L265.042 91.0187L261.769 86.7242L254.516 92.2529C253.227 93.235 253.056 94.3464 254.002 95.5871C254.256 95.9211 254.57 96.1846 254.944 96.3777C255.33 96.5867 255.881 96.7824 256.599 96.9648L256.238 98.3717L252.492 97.4169Z" fill="white"/>
<path d="M264.342 117.435L261.619 112.427L270.501 107.597C271.467 107.072 272.062 106.555 272.286 106.046C272.511 105.537 272.412 104.896 271.992 104.123C271.677 103.543 271.256 103.021 270.73 102.555C270.213 102.108 269.446 101.66 268.428 101.212L260.443 105.554L260.81 108.428L259.469 108.474L255.471 101.121L256.288 100.676L259.408 102.019L275.617 93.2049L275.975 89.9707L276.792 89.5264L280.93 93.116L281.474 94.1175L269.667 100.538L274.477 102.601C274.818 102.893 275.151 103.338 275.476 103.936C276.126 105.131 276.273 106.28 275.917 107.384C275.579 108.479 274.786 109.365 273.538 110.043L265.315 114.515L265.683 117.389L264.342 117.435Z" fill="white"/>
<path d="M268.109 128.423L265.279 120.546L266.155 120.232L269.034 122.035L277.278 119.074L278.126 115.932L279.001 115.618L282.542 119.797L282.928 120.87L269.516 125.686L269.441 128.582L268.109 128.423ZM290.749 116.021C290.952 116.585 290.91 117.121 290.625 117.627C290.346 118.152 289.896 118.526 289.275 118.75C288.842 118.905 288.38 118.922 287.89 118.8C287.419 118.672 287 118.451 286.632 118.137C286.264 117.823 286.013 117.477 285.877 117.101C285.675 116.536 285.713 115.991 285.991 115.466C286.277 114.96 286.731 114.595 287.352 114.372C287.785 114.216 288.237 114.203 288.708 114.331C289.198 114.453 289.627 114.671 289.994 114.985C290.362 115.299 290.614 115.644 290.749 116.021Z" fill="white"/>
<path d="M272.963 150.138L271.878 144.543L281.803 142.618C282.883 142.408 283.606 142.095 283.974 141.677C284.341 141.26 284.441 140.619 284.273 139.755C284.147 139.107 283.904 138.482 283.543 137.88C283.185 137.297 282.589 136.639 281.754 135.904L272.83 137.635L272.313 140.486L271.021 140.125L269.428 131.908L270.341 131.731L272.91 133.952L281.245 132.336L282.268 129.418L283.181 129.241L286.632 133.797L282.992 135.511L287.131 139.048C287.368 139.43 287.551 139.955 287.681 140.622C287.939 141.957 287.733 143.098 287.06 144.043C286.408 144.984 285.384 145.59 283.99 145.861L274.802 147.643L274.255 150.499L272.963 150.138Z" fill="white"/>
<path d="M274.35 157.881L273.128 157.327L272.808 148.963L273.737 148.927L275.938 151.515L294.374 150.808L296.131 148.069L297.06 148.033L299.175 153.086L299.219 154.225L275.296 155.142L274.35 157.881ZM273.519 167.519L273.325 162.453L281.023 156.514L285.944 161.939L287.932 158.981L289.155 159.535L289.429 166.699L288.5 166.735L282.388 160.004L275.687 165.335L274.741 168.073L273.519 167.519Z" fill="white"/>
<path d="M279.28 188.681L280.438 190.243L277.949 199.297L277.082 199.059L275.924 197.496L278.412 188.442L279.28 188.681Z" fill="white"/>
<path d="M256.25 226.977C256.72 227.281 257.317 227.299 258.04 227.028C258.78 226.769 259.774 226.281 261.024 225.565C262.043 224.986 262.894 224.536 263.577 224.217C264.261 223.897 264.946 223.685 265.633 223.582C266.325 223.506 266.931 223.637 267.452 223.974C268.056 224.365 268.539 225.035 268.902 225.985C269.264 226.934 269.441 227.93 269.432 228.973C269.424 230.016 269.213 230.857 268.8 231.495C268.3 232.267 267.623 233.091 266.77 233.968C265.922 234.873 265.234 235.475 264.705 235.777L260.827 233.265L261.447 232.308C262.836 232.445 264.044 232.346 265.071 232.01C266.115 231.686 266.876 231.154 267.355 230.416C267.692 229.895 267.821 229.383 267.742 228.879C267.68 228.386 267.439 228.004 267.019 227.732C266.499 227.395 265.855 227.36 265.087 227.625C264.326 227.918 263.309 228.439 262.038 229.188C261.047 229.762 260.223 230.206 259.567 230.519C258.911 230.833 258.251 231.025 257.586 231.095C256.927 231.192 256.338 231.073 255.817 230.736C255.196 230.333 254.715 229.641 254.375 228.658C254.041 227.703 253.888 226.687 253.918 225.61C253.938 224.55 254.154 223.701 254.567 223.064C255.1 222.241 255.828 221.319 256.752 220.297C257.682 219.302 258.422 218.638 258.972 218.303L262.85 220.815L262.23 221.772C260.809 221.685 259.543 221.854 258.434 222.28C257.341 222.716 256.529 223.345 255.996 224.168C255.637 224.722 255.492 225.259 255.56 225.78C255.617 226.317 255.847 226.716 256.25 226.977Z" fill="white"/>
<path d="M256.168 247.819C255.289 248.804 254.243 249.452 253.028 249.763C251.816 250.102 250.576 250.095 249.309 249.743C248.029 249.406 246.859 248.765 245.799 247.82C244.649 246.796 243.879 245.48 243.489 243.874C243.114 242.28 243.093 240.681 243.426 239.075C243.76 237.498 244.366 236.216 245.244 235.231C246.122 234.245 247.168 233.583 248.381 233.244C249.595 232.934 250.843 232.947 252.123 233.284C253.39 233.636 254.553 234.285 255.613 235.229C256.763 236.254 257.525 237.563 257.9 239.156C258.29 240.763 258.318 242.355 257.984 243.932C257.651 245.538 257.046 246.833 256.168 247.819ZM255.444 244.843C256.948 243.156 256.497 241.241 254.094 239.099C252.675 237.835 251.215 237.083 249.714 236.844C248.228 236.617 246.979 237.072 245.968 238.207C244.464 239.894 244.922 241.815 247.341 243.971C248.744 245.222 250.189 245.96 251.675 246.186C253.176 246.426 254.433 245.978 255.444 244.843Z" fill="white"/>
<path d="M229.853 250.106L236.311 244.78L236.902 245.498L236.178 248.817L247.917 263.051L251.16 262.787L251.752 263.504L249.016 268.25L248.136 268.975L232.905 250.505L230.154 251.413L229.853 250.106Z" fill="white"/>
<path d="M219.146 274.746L218.005 257.973L219.965 256.808L229.828 264.242L233.055 264.208L233.53 265.008L230.408 269.795L227.113 266.484L219.399 260.67L220.254 270.387L225.171 270.85L225.269 272.188L219.621 275.545L219.146 274.746Z" fill="white"/>
<path d="M201.618 265.735C202.3 265.288 203.161 264.854 204.2 264.436C205.424 263.942 206.655 263.813 207.892 264.047C209.119 264.308 210.23 264.873 211.228 265.743C212.207 266.621 212.962 267.718 213.493 269.035C214.069 270.464 214.171 271.975 213.8 273.569C213.437 275.182 212.755 276.621 211.756 277.886C210.745 279.178 209.628 280.07 208.403 280.564C206.641 281.274 204.997 281.128 203.472 280.125C201.928 279.13 200.696 277.492 199.777 275.21L210.072 271.061C209.325 269.529 208.379 268.412 207.233 267.709C206.069 267.014 204.838 266.928 203.539 267.451C202.333 267.937 200.995 269.566 199.524 272.336L198.263 271.615L201.618 265.735ZM209.075 277.576C211.079 276.768 211.573 274.973 210.56 272.191L204.049 274.815C204.619 275.749 205.102 276.439 205.497 276.883C205.881 277.354 206.362 277.667 206.942 277.821C207.511 278.001 208.222 277.92 209.075 277.576Z" fill="white"/>
<path d="M176.682 281.183L175.603 282.8L166.24 283.519L166.171 282.622L167.251 281.005L176.613 280.286L176.682 281.183Z" fill="white"/>
</svg>
