<svg width="441" height="242" viewBox="0 0 441 242" fill="none" xmlns="http://www.w3.org/2000/svg">
<path d="M264.5 134.5C138.097 48.383 98.6192 232.036 1.79141 174.232" stroke="white" stroke-width="5"/>
<path d="M201.6 197.8C188.933 197.8 178.4 194.2 170 187C161.2 179.133 156.8 169 156.8 156.6C156.8 145.133 160.867 135.333 169 127.2C177.4 119.067 187.267 115 198.6 115C206.733 115 213.867 117.333 220 122C226.667 126.933 230 133.4 230 141.4C230 149.133 227.4 155.333 222.2 160C217.133 164.267 210.733 166.4 203 166.4C197.8 166.4 194.4 165.8 192.8 164.6L192.6 164.2C193 163.667 193.4 163.4 193.8 163.4C193.933 163.4 194.067 163.467 194.2 163.6C194.867 164 195.867 164.267 197.2 164.4C198.667 164.533 200.333 164.6 202.2 164.6C209.533 164.6 215.333 162.467 219.6 158.2C223.867 154.067 226 148.333 226 141C226 133.8 223.533 128 218.6 123.6C213.667 119.333 207.667 117.2 200.6 117.2C189.667 117.2 180.667 120.733 173.6 127.8C166.667 134.733 163.2 143.733 163.2 154.8C163.2 166.8 167.067 176.267 174.8 183.2C182.267 189.867 192.133 193.2 204.4 193.2C230.8 193.2 258.6 173.533 287.8 134.2C310.333 104.067 328 85.3333 340.8 78L298.8 63.8C295.867 62.7333 292.867 62 289.8 61.6C286.867 61.2 283.867 61 280.8 61C270.4 61 260.867 63.7333 252.2 69.2C242.467 75.6 237.6 83.7333 237.6 93.6C237.6 98.1333 238.667 102.533 240.8 106.8C245.333 116.267 254 121 266.8 121C267.867 121 268.867 121 269.8 121C270.733 121 271.667 120.933 272.6 120.8C278.467 120 283.733 117.333 288.4 112.8C293.6 107.733 296.2 102.533 296.2 97.2C296.2 93.2 294.533 90.2 291.2 88.2C291.067 88.0667 291 87.8667 291 87.6C291 87.3333 291.133 87.2 291.4 87.2C291.533 87.2 291.6 87.2667 291.6 87.4C291.733 87.4 291.867 87.4 292 87.4H292.6C296.867 89.6667 299 93.3333 299 98.4C299 103.867 296.667 109.067 292 114C287.733 118.267 282.667 121.133 276.8 122.6C273.2 123.533 269.333 124 265.2 124C255.867 124 247.933 121.067 241.4 115.2C234.733 108.933 231.4 101.133 231.4 91.8C231.4 80.2 236.133 70.8667 245.6 63.8C254.133 57.2667 264.333 54 276.2 54C277 54 277.733 54 278.4 54C279.2 54 279.933 54.0667 280.6 54.2C296.467 55.5333 313.867 60.9333 332.8 70.4C334.133 70.9333 335.667 71.7333 337.4 72.8C339.267 73.7333 341.4 74.9333 343.8 76.4C350.067 71.6 357.667 69.2 366.6 69.2C368.467 69.2 370.267 69.4 372 69.8C373.867 70.0667 375.467 70.6 376.8 71.4C380.533 73.4 382.4 76.2 382.4 79.8C382.4 85.9333 379.067 89 372.4 89C370.4 89 368.133 88.6667 365.6 88C363.2 87.3333 361.533 86.7333 360.6 86.2C359.267 88.2 357.867 90.3333 356.4 92.6C354.933 94.8667 353.4 97.3333 351.8 100C349.667 103.6 345.867 112.133 340.4 125.6C338.267 130.933 336 135.6 333.6 139.6C331.333 143.6 328.867 147.067 326.2 150C315.4 161.733 303 170.333 289 175.8C289.267 175.8 289.6 175.8 290 175.8C290.533 175.667 291.2 175.6 292 175.6H295C297.8 175.6 300.333 175.733 302.6 176C305 176.267 307.2 176.6 309.2 177C317.067 179 321.667 180 323 180C325.4 180 326.6 179 326.6 177C326.6 176.2 326.467 175.533 326.2 175C326.067 174.467 326 174.067 326 173.8C326 173.4 326 173.133 326 173C326 172.867 326 172.8 326 172.8C326.133 172.667 326.2 172.6 326.2 172.6C326.333 172.6 326.467 172.667 326.6 172.8C327.8 174 328.4 175.6 328.4 177.6C328.4 182.667 325 185.2 318.2 185.2C316.867 185.2 315.4 185.067 313.8 184.8C312.2 184.533 310.467 184 308.6 183.2L299.6 179.6C297.2 178.533 294.733 177.867 292.2 177.6C289.667 177.467 287.067 177.4 284.4 177.4L284.2 176.8C292.067 171.2 299.333 164.6 306 157C310.8 151.667 316.467 143.6 323 132.8C323.4 132.133 324.2 130.8 325.4 128.8H295.2C287.733 139.467 280.733 148.733 274.2 156.6C267.667 164.333 261.667 170.533 256.2 175.2C239.133 190.267 220.933 197.8 201.6 197.8ZM369 87.4C375.8 87.4 379.2 84.9333 379.2 80C379.2 77.0667 378 74.8 375.6 73.2C373.467 71.6 370.867 70.8 367.8 70.8C359.533 70.8 352.067 72.9333 345.4 77.2C347.533 78.1333 349.667 79.2 351.8 80.4C353.933 81.4667 356.067 82.5333 358.2 83.6L366.8 74.8C367.067 74.8 367.2 74.9333 367.2 75.2C367.2 76 365.267 79.3333 361.4 85.2C363.933 86.6667 366.467 87.4 369 87.4ZM296.8 126.6H326.8C335.2 112.733 345.2 98.7333 356.8 84.6L342.8 78.8C339.467 80.9333 335.667 83.8 331.4 87.4C327.267 91 322.8 95.4 318 100.6C309.733 109.667 302.667 118.333 296.8 126.6Z" fill="white"/>
<path d="M348.2 183.25C346.767 183.25 345.783 182.883 345.25 182.15C344.717 181.383 344.45 180.367 344.45 179.1C344.45 177.7 344.883 176.033 345.75 174.1C346.083 173.333 346.433 172.65 346.8 172.05C347.167 171.417 347.55 170.833 347.95 170.3C347.817 170.333 347.7 170.35 347.6 170.35C347.5 170.35 347.4 170.35 347.3 170.35C346.5 170.35 345.833 169.783 345.3 168.65L341.6 173.45C339.633 176.017 338.433 177.3 338 177.3C337.833 177.3 337.75 177.233 337.75 177.1C337.75 176.933 337.833 176.717 338 176.45C338.1 176.25 338.3 175.983 338.6 175.65C339.867 174.183 341.033 172.733 342.1 171.3C343.167 169.867 344.05 168.467 344.75 167.1C345.517 164.2 346.483 162.75 347.65 162.75C348.417 162.75 348.8 163.1 348.8 163.8C348.8 164.433 348.383 165.267 347.55 166.3C346.75 167.333 346.35 167.867 346.35 167.9C346.35 168.6 346.867 168.95 347.9 168.95C348.5 168.95 349.167 168.733 349.9 168.3L351.2 167.5C351.267 167.467 351.367 167.45 351.5 167.45C351.9 167.45 352.25 167.617 352.55 167.95C352.85 168.283 352.95 168.583 352.85 168.85L349.4 173.2C347.267 175.933 346.2 178.133 346.2 179.8C346.2 181.3 346.933 182.05 348.4 182.05C349.4 182.05 350.467 181.75 351.6 181.15C352.767 180.55 353.883 179.817 354.95 178.95C356.05 178.05 356.967 177.183 357.7 176.35L358.9 174.95C358.967 174.883 359.05 174.8 359.15 174.7C359.25 174.6 359.333 174.55 359.4 174.55C359.633 174.55 359.75 174.667 359.75 174.9C359.75 174.967 359.717 175.083 359.65 175.25C359.583 175.417 359.467 175.6 359.3 175.8L357.7 177.6C356.933 178.467 355.983 179.35 354.85 180.25C353.75 181.117 352.6 181.833 351.4 182.4C350.233 182.967 349.167 183.25 348.2 183.25ZM363.428 183.1C361.861 183.1 360.694 182.583 359.928 181.55C359.194 180.517 358.594 179.083 358.128 177.25C357.528 177.85 357.111 178.15 356.878 178.15C356.711 178.15 356.628 178.017 356.628 177.75C356.628 177.55 356.711 177.367 356.878 177.2C356.878 177.2 357.294 176.683 358.128 175.65C358.994 174.617 360.444 173.167 362.478 171.3L368.778 165.4C369.644 164.567 370.328 163.933 370.828 163.5C371.361 163.067 371.744 162.85 371.978 162.85C373.044 162.85 373.578 163.25 373.578 164.05C373.578 164.45 373.361 164.917 372.928 165.45C372.594 165.85 372.344 166.167 372.178 166.4C372.044 166.6 371.961 166.717 371.928 166.75C371.328 167.783 370.778 169.633 370.278 172.3C369.911 174.267 369.594 175.883 369.328 177.15C369.061 178.417 368.844 179.333 368.678 179.9C370.078 179.867 371.461 179.433 372.828 178.6C374.194 177.767 375.661 176.4 377.228 174.5C377.294 174.433 377.394 174.333 377.528 174.2C377.661 174.067 377.794 174 377.928 174C378.128 174 378.228 174.083 378.228 174.25C378.228 174.417 378.178 174.583 378.078 174.75C377.978 174.917 377.878 175.067 377.778 175.2C376.744 176.433 375.778 177.45 374.878 178.25C373.978 179.017 373.028 179.633 372.028 180.1C371.028 180.533 369.844 180.9 368.478 181.2L366.878 182.25C366.444 182.55 365.928 182.767 365.328 182.9C364.728 183.033 364.094 183.1 363.428 183.1ZM364.028 180.55C364.794 180.55 365.428 180.367 365.928 180C366.294 179.8 366.644 179.25 366.978 178.35C367.344 177.417 367.694 176.267 368.028 174.9C368.294 173.733 368.494 172.6 368.628 171.5C368.794 170.367 368.944 169.283 369.078 168.25L369.278 166.55C368.511 167.117 367.544 167.933 366.378 169C365.211 170.067 364.061 171.183 362.928 172.35C361.794 173.517 361.061 174.383 360.728 174.95C360.394 175.483 360.211 175.883 360.178 176.15C360.044 177.483 360.361 178.55 361.128 179.35C361.928 180.15 362.894 180.55 364.028 180.55ZM378.746 183.3C377.68 183.3 376.83 183.05 376.196 182.55C375.596 182.017 375.296 181.083 375.296 179.75C375.296 178.983 375.53 178.017 375.996 176.85C376.463 175.65 377.046 174.367 377.746 173C378.446 171.633 379.146 170.283 379.846 168.95C379.413 169.05 379.03 169.1 378.696 169.1C377.696 169.1 377.196 168.717 377.196 167.95C377.196 167.583 377.33 167.3 377.596 167.1C377.896 166.9 378.163 166.783 378.396 166.75C378.396 166.75 378.43 166.75 378.496 166.75C378.596 166.75 378.713 166.733 378.846 166.7H381.746C382.346 165.933 382.963 165.117 383.596 164.25C384.496 163.117 385.213 162.45 385.746 162.25H385.896C386.13 162.25 386.463 162.367 386.896 162.6C387.43 162.9 387.696 163.2 387.696 163.5C387.696 163.933 386.896 165.05 385.296 166.85C385.596 166.883 386.03 166.9 386.596 166.9C387.163 166.9 387.863 166.9 388.696 166.9C389.096 166.9 389.663 166.9 390.396 166.9C391.163 166.9 391.946 166.9 392.746 166.9C393.58 166.867 394.296 166.85 394.896 166.85C395.496 166.817 395.83 166.8 395.896 166.8C395.996 166.833 396.046 166.883 396.046 166.95C396.046 167.25 394.08 167.65 390.146 168.15C387.913 168.45 386.196 168.683 384.996 168.85C383.83 169.017 383.196 169.117 383.096 169.15C382.63 169.55 382.063 170.233 381.396 171.2C380.73 172.167 380.063 173.25 379.396 174.45C378.73 175.65 378.163 176.8 377.696 177.9C377.263 178.967 377.046 179.8 377.046 180.4C377.046 180.933 377.246 181.383 377.646 181.75C378.046 182.083 378.696 182.25 379.596 182.25C380.196 182.25 380.913 182.117 381.746 181.85C382.58 181.583 383.363 181.283 384.096 180.95C384.863 180.583 385.413 180.3 385.746 180.1C386.613 179.567 387.563 178.867 388.596 178C389.663 177.1 390.713 176.083 391.746 174.95C392.213 174.483 392.53 174.25 392.696 174.25C392.796 174.25 392.846 174.317 392.846 174.45C392.846 174.717 392.596 175.15 392.096 175.75C391.296 176.717 390.396 177.65 389.396 178.55C388.43 179.417 387.346 180.217 386.146 180.95C384.78 181.783 383.463 182.383 382.196 182.75C380.963 183.117 379.813 183.3 378.746 183.3ZM401.54 165.8C400.974 165.8 400.474 165.617 400.04 165.25C399.64 164.883 399.44 164.467 399.44 164C399.44 163.067 400.074 162.6 401.34 162.6C401.807 162.6 402.274 162.767 402.74 163.1C403.207 163.4 403.44 163.783 403.44 164.25C403.44 164.65 403.224 165.017 402.79 165.35C402.357 165.65 401.94 165.8 401.54 165.8ZM392.29 183.55C391.557 183.55 390.957 183.317 390.49 182.85C389.99 182.35 389.74 181.483 389.74 180.25C389.74 179.55 389.907 178.75 390.24 177.85C390.54 176.917 390.924 175.983 391.39 175.05C391.89 174.117 392.374 173.283 392.84 172.55C394.707 169.517 396.24 167.983 397.44 167.95C397.74 167.95 398.107 168.083 398.54 168.35C398.974 168.583 399.19 168.85 399.19 169.15C399.19 169.15 397.924 170.783 395.39 174.05C392.89 177.283 391.64 179.583 391.64 180.95C391.64 182.017 392.057 182.55 392.89 182.55C393.424 182.55 394.107 182.333 394.94 181.9C395.807 181.433 396.707 180.85 397.64 180.15C398.574 179.45 399.457 178.7 400.29 177.9C401.157 177.1 401.857 176.367 402.39 175.7C402.724 175.267 403.007 174.967 403.24 174.8C403.507 174.633 403.674 174.55 403.74 174.55C403.874 174.55 403.94 174.65 403.94 174.85C403.94 175.017 403.74 175.35 403.34 175.85C402.974 176.35 402.457 176.933 401.79 177.6C400.99 178.4 400.107 179.267 399.14 180.2C398.174 181.133 397.124 181.933 395.99 182.6C394.857 183.233 393.624 183.55 392.29 183.55ZM405.12 183.25C404.12 183.25 403.27 182.983 402.57 182.45C401.87 181.883 401.47 181.2 401.37 180.4C401.236 179.333 401.386 178.267 401.82 177.2C402.286 176.1 402.903 175.05 403.67 174.05C404.47 173.05 405.32 172.117 406.22 171.25C409.753 167.717 412.936 165.95 415.77 165.95C416.736 165.95 417.386 166.2 417.72 166.7C417.853 166.867 418.003 167.25 418.17 167.85C421.903 161.783 424.503 158.75 425.97 158.75C426.303 158.75 426.653 158.833 427.02 159C427.386 159.167 427.57 159.383 427.57 159.65C427.57 159.817 427.486 160.033 427.32 160.3C426.32 161.533 425.32 162.767 424.32 164C423.32 165.2 422.336 166.417 421.37 167.65C419.736 169.717 418.42 171.517 417.42 173.05C416.42 174.583 415.703 175.883 415.27 176.95C415.136 177.283 415.003 177.7 414.87 178.2C414.77 178.667 414.72 179.15 414.72 179.65C414.72 180.283 414.853 180.833 415.12 181.3C415.386 181.767 415.87 182 416.57 182C417.67 182 419.02 181.467 420.62 180.4C422.22 179.333 424.086 177.583 426.22 175.15C426.353 175.017 426.47 174.9 426.57 174.8C426.703 174.7 426.836 174.633 426.97 174.6C427.27 174.533 427.42 174.6 427.42 174.8C427.42 174.9 427.32 175.083 427.12 175.35C426.086 176.583 424.936 177.8 423.67 179C422.403 180.2 421.103 181.2 419.77 182C418.47 182.767 417.253 183.15 416.12 183.15C414.986 183.15 414.186 182.767 413.72 182C413.253 181.233 413.02 180.367 413.02 179.4C413.02 178.4 413.203 177.483 413.57 176.65L409.52 180.7C408.62 181.6 407.786 182.25 407.02 182.65C406.286 183.05 405.653 183.25 405.12 183.25ZM404.67 182.15C406.103 182.15 408.486 180.183 411.82 176.25C411.986 176.05 412.57 175.317 413.57 174.05C414.57 172.75 415.986 170.867 417.82 168.4C417.586 168 417.186 167.8 416.62 167.8C414.553 167.8 411.786 169.433 408.32 172.7C405.053 175.733 403.42 178.283 403.42 180.35C403.42 181.55 403.836 182.15 404.67 182.15ZM427.659 183.65C426.593 183.65 425.626 183.317 424.759 182.65C423.893 181.95 423.459 181.033 423.459 179.9C423.459 177.533 424.909 174.833 427.809 171.8C430.776 168.733 433.426 167.2 435.759 167.2C436.526 167.2 437.143 167.417 437.609 167.85C438.109 168.25 438.359 168.75 438.359 169.35C438.359 171.217 436.876 173.05 433.909 174.85C431.276 176.45 429.059 177.25 427.259 177.25C426.993 177.25 426.759 177.217 426.559 177.15C426.059 178.05 425.809 179 425.809 180C425.809 181.733 426.626 182.6 428.259 182.6C429.926 182.6 432.076 181.483 434.709 179.25C436.743 177.617 438.476 175.883 439.909 174.05C440.209 173.65 440.476 173.45 440.709 173.45C440.909 173.45 441.009 173.55 441.009 173.75C441.009 173.95 440.876 174.233 440.609 174.6C439.676 175.833 438.676 176.967 437.609 178C436.543 179.033 435.393 179.983 434.159 180.85C431.593 182.717 429.426 183.65 427.659 183.65ZM427.959 176.15C429.226 176.15 430.876 175.517 432.909 174.25C433.576 173.783 434.226 173.267 434.859 172.7C435.526 172.1 436.059 171.5 436.459 170.9C436.893 170.3 437.109 169.767 437.109 169.3C437.109 168.867 436.759 168.65 436.059 168.65C435.059 168.65 433.659 169.4 431.859 170.9C430.993 171.633 430.159 172.433 429.359 173.3C428.559 174.167 427.876 175.083 427.309 176.05C427.509 176.117 427.726 176.15 427.959 176.15Z" fill="white"/>
</svg>
