<svg width="497" height="242" viewBox="0 0 497 242" fill="none" xmlns="http://www.w3.org/2000/svg">
<path d="M264.709 134.5C138.305 48.383 98.8278 232.036 2 174.232" stroke="white" stroke-width="5"/>
<path d="M201.809 197.8C189.142 197.8 178.609 194.2 170.209 187C161.409 179.133 157.009 169 157.009 156.6C157.009 145.133 161.075 135.333 169.209 127.2C177.609 119.067 187.475 115 198.809 115C206.942 115 214.075 117.333 220.209 122C226.875 126.933 230.209 133.4 230.209 141.4C230.209 149.133 227.609 155.333 222.409 160C217.342 164.267 210.942 166.4 203.209 166.4C198.009 166.4 194.609 165.8 193.009 164.6L192.809 164.2C193.209 163.667 193.609 163.4 194.009 163.4C194.142 163.4 194.275 163.467 194.409 163.6C195.075 164 196.075 164.267 197.409 164.4C198.875 164.533 200.542 164.6 202.409 164.6C209.742 164.6 215.542 162.467 219.809 158.2C224.075 154.067 226.209 148.333 226.209 141C226.209 133.8 223.742 128 218.809 123.6C213.875 119.333 207.875 117.2 200.809 117.2C189.875 117.2 180.875 120.733 173.809 127.8C166.875 134.733 163.409 143.733 163.409 154.8C163.409 166.8 167.275 176.267 175.009 183.2C182.475 189.867 192.342 193.2 204.609 193.2C231.009 193.2 258.809 173.533 288.009 134.2C310.542 104.067 328.209 85.3333 341.009 78L299.009 63.8C296.075 62.7333 293.075 62 290.009 61.6C287.075 61.2 284.075 61 281.009 61C270.609 61 261.075 63.7333 252.409 69.2C242.675 75.6 237.809 83.7333 237.809 93.6C237.809 98.1333 238.875 102.533 241.009 106.8C245.542 116.267 254.209 121 267.009 121C268.075 121 269.075 121 270.009 121C270.942 121 271.875 120.933 272.809 120.8C278.675 120 283.942 117.333 288.609 112.8C293.809 107.733 296.409 102.533 296.409 97.2C296.409 93.2 294.742 90.2 291.409 88.2C291.275 88.0667 291.209 87.8667 291.209 87.6C291.209 87.3333 291.342 87.2 291.609 87.2C291.742 87.2 291.809 87.2667 291.809 87.4C291.942 87.4 292.075 87.4 292.209 87.4H292.809C297.075 89.6667 299.209 93.3333 299.209 98.4C299.209 103.867 296.875 109.067 292.209 114C287.942 118.267 282.875 121.133 277.009 122.6C273.409 123.533 269.542 124 265.409 124C256.075 124 248.142 121.067 241.609 115.2C234.942 108.933 231.609 101.133 231.609 91.8C231.609 80.2 236.342 70.8667 245.809 63.8C254.342 57.2667 264.542 54 276.409 54C277.209 54 277.942 54 278.609 54C279.409 54 280.142 54.0667 280.809 54.2C296.675 55.5333 314.075 60.9333 333.009 70.4C334.342 70.9333 335.875 71.7333 337.609 72.8C339.475 73.7333 341.609 74.9333 344.009 76.4C350.275 71.6 357.875 69.2 366.809 69.2C368.675 69.2 370.475 69.4 372.209 69.8C374.075 70.0667 375.675 70.6 377.009 71.4C380.742 73.4 382.609 76.2 382.609 79.8C382.609 85.9333 379.275 89 372.609 89C370.609 89 368.342 88.6667 365.809 88C363.409 87.3333 361.742 86.7333 360.809 86.2C359.475 88.2 358.075 90.3333 356.609 92.6C355.142 94.8667 353.609 97.3333 352.009 100C349.875 103.6 346.075 112.133 340.609 125.6C338.475 130.933 336.209 135.6 333.809 139.6C331.542 143.6 329.075 147.067 326.409 150C315.609 161.733 303.209 170.333 289.209 175.8C289.475 175.8 289.809 175.8 290.209 175.8C290.742 175.667 291.409 175.6 292.209 175.6H295.209C298.009 175.6 300.542 175.733 302.809 176C305.209 176.267 307.409 176.6 309.409 177C317.275 179 321.875 180 323.209 180C325.609 180 326.809 179 326.809 177C326.809 176.2 326.675 175.533 326.409 175C326.275 174.467 326.209 174.067 326.209 173.8C326.209 173.4 326.209 173.133 326.209 173C326.209 172.867 326.209 172.8 326.209 172.8C326.342 172.667 326.409 172.6 326.409 172.6C326.542 172.6 326.675 172.667 326.809 172.8C328.009 174 328.609 175.6 328.609 177.6C328.609 182.667 325.209 185.2 318.409 185.2C317.075 185.2 315.609 185.067 314.009 184.8C312.409 184.533 310.675 184 308.809 183.2L299.809 179.6C297.409 178.533 294.942 177.867 292.409 177.6C289.875 177.467 287.275 177.4 284.609 177.4L284.409 176.8C292.275 171.2 299.542 164.6 306.209 157C311.009 151.667 316.675 143.6 323.209 132.8C323.609 132.133 324.409 130.8 325.609 128.8H295.409C287.942 139.467 280.942 148.733 274.409 156.6C267.875 164.333 261.875 170.533 256.409 175.2C239.342 190.267 221.142 197.8 201.809 197.8ZM369.209 87.4C376.009 87.4 379.409 84.9333 379.409 80C379.409 77.0667 378.209 74.8 375.809 73.2C373.675 71.6 371.075 70.8 368.009 70.8C359.742 70.8 352.275 72.9333 345.609 77.2C347.742 78.1333 349.875 79.2 352.009 80.4C354.142 81.4667 356.275 82.5333 358.409 83.6L367.009 74.8C367.275 74.8 367.409 74.9333 367.409 75.2C367.409 76 365.475 79.3333 361.609 85.2C364.142 86.6667 366.675 87.4 369.209 87.4ZM297.009 126.6H327.009C335.409 112.733 345.409 98.7333 357.009 84.6L343.009 78.8C339.675 80.9333 335.875 83.8 331.609 87.4C327.475 91 323.009 95.4 318.209 100.6C309.942 109.667 302.875 118.333 297.009 126.6Z" fill="white"/>
<path d="M353.917 186.385C351.709 186.385 350.195 185.82 349.374 184.691C348.552 183.51 348.142 181.945 348.142 179.994C348.142 177.838 348.809 175.271 350.144 172.294C350.657 171.113 351.196 170.061 351.761 169.137C352.325 168.162 352.916 167.263 353.532 166.442C353.326 166.493 353.147 166.519 352.993 166.519C352.839 166.519 352.685 166.519 352.531 166.519C351.299 166.519 350.272 165.646 349.451 163.901L343.753 171.293C340.724 175.246 338.876 177.222 338.209 177.222C337.952 177.222 337.824 177.119 337.824 176.914C337.824 176.657 337.952 176.324 338.209 175.913C338.363 175.605 338.671 175.194 339.133 174.681C341.083 172.422 342.88 170.189 344.523 167.982C346.165 165.775 347.526 163.619 348.604 161.514C349.784 157.048 351.273 154.815 353.07 154.815C354.25 154.815 354.841 155.354 354.841 156.432C354.841 157.407 354.199 158.691 352.916 160.282C351.684 161.873 351.068 162.695 351.068 162.746C351.068 163.824 351.863 164.363 353.455 164.363C354.379 164.363 355.405 164.029 356.535 163.362L358.537 162.13C358.639 162.079 358.793 162.053 358.999 162.053C359.615 162.053 360.154 162.31 360.616 162.823C361.078 163.336 361.232 163.798 361.078 164.209L355.765 170.908C352.479 175.117 350.837 178.505 350.837 181.072C350.837 183.382 351.966 184.537 354.225 184.537C355.765 184.537 357.407 184.075 359.153 183.151C360.949 182.227 362.669 181.098 364.312 179.763C366.006 178.377 367.417 177.042 368.547 175.759L370.395 173.603C370.497 173.5 370.626 173.372 370.78 173.218C370.934 173.064 371.062 172.987 371.165 172.987C371.524 172.987 371.704 173.167 371.704 173.526C371.704 173.629 371.652 173.808 371.55 174.065C371.447 174.322 371.267 174.604 371.011 174.912L368.547 177.684C367.366 179.019 365.903 180.379 364.158 181.765C362.464 183.1 360.693 184.203 358.845 185.076C357.048 185.949 355.405 186.385 353.917 186.385ZM377.367 186.154C374.955 186.154 373.158 185.358 371.977 183.767C370.848 182.176 369.924 179.968 369.205 177.145C368.281 178.069 367.64 178.531 367.28 178.531C367.024 178.531 366.895 178.326 366.895 177.915C366.895 177.607 367.024 177.325 367.28 177.068C367.28 177.068 367.922 176.272 369.205 174.681C370.54 173.09 372.773 170.857 375.904 167.982L385.606 158.896C386.941 157.613 387.993 156.637 388.763 155.97C389.585 155.303 390.175 154.969 390.534 154.969C392.177 154.969 392.998 155.585 392.998 156.817C392.998 157.433 392.665 158.152 391.997 158.973C391.484 159.589 391.099 160.077 390.842 160.436C390.637 160.744 390.509 160.924 390.457 160.975C389.533 162.566 388.686 165.415 387.916 169.522C387.352 172.551 386.864 175.04 386.453 176.991C386.043 178.942 385.709 180.353 385.452 181.226C387.608 181.175 389.739 180.507 391.843 179.224C393.948 177.941 396.207 175.836 398.619 172.91C398.722 172.807 398.876 172.653 399.081 172.448C399.287 172.243 399.492 172.14 399.697 172.14C400.005 172.14 400.159 172.268 400.159 172.525C400.159 172.782 400.082 173.038 399.928 173.295C399.774 173.552 399.62 173.783 399.466 173.988C397.875 175.887 396.386 177.453 395 178.685C393.614 179.866 392.151 180.815 390.611 181.534C389.071 182.201 387.249 182.766 385.144 183.228L382.68 184.845C382.013 185.307 381.217 185.641 380.293 185.846C379.369 186.051 378.394 186.154 377.367 186.154ZM378.291 182.227C379.472 182.227 380.447 181.945 381.217 181.38C381.782 181.072 382.321 180.225 382.834 178.839C383.399 177.402 383.938 175.631 384.451 173.526C384.862 171.729 385.17 169.984 385.375 168.29C385.632 166.545 385.863 164.876 386.068 163.285L386.376 160.667C385.196 161.54 383.707 162.797 381.91 164.44C380.114 166.083 378.343 167.802 376.597 169.599C374.852 171.396 373.723 172.73 373.209 173.603C372.696 174.424 372.414 175.04 372.362 175.451C372.157 177.504 372.645 179.147 373.825 180.379C375.057 181.611 376.546 182.227 378.291 182.227ZM400.958 186.462C399.316 186.462 398.007 186.077 397.031 185.307C396.107 184.486 395.645 183.048 395.645 180.995C395.645 179.814 396.005 178.326 396.723 176.529C397.442 174.681 398.34 172.705 399.418 170.6C400.496 168.495 401.574 166.416 402.652 164.363C401.985 164.517 401.395 164.594 400.881 164.594C399.341 164.594 398.571 164.004 398.571 162.823C398.571 162.258 398.777 161.822 399.187 161.514C399.649 161.206 400.06 161.026 400.419 160.975C400.419 160.975 400.471 160.975 400.573 160.975C400.727 160.975 400.907 160.949 401.112 160.898H405.578C406.502 159.717 407.452 158.46 408.427 157.125C409.813 155.38 410.917 154.353 411.738 154.045H411.969C412.329 154.045 412.842 154.225 413.509 154.584C414.331 155.046 414.741 155.508 414.741 155.97C414.741 156.637 413.509 158.357 411.045 161.129C411.507 161.18 412.175 161.206 413.047 161.206C413.92 161.206 414.998 161.206 416.281 161.206C416.897 161.206 417.77 161.206 418.899 161.206C420.08 161.206 421.286 161.206 422.518 161.206C423.802 161.155 424.905 161.129 425.829 161.129C426.753 161.078 427.267 161.052 427.369 161.052C427.523 161.103 427.6 161.18 427.6 161.283C427.6 161.745 424.572 162.361 418.514 163.131C415.075 163.593 412.431 163.952 410.583 164.209C408.787 164.466 407.811 164.62 407.657 164.671C406.939 165.287 406.066 166.339 405.039 167.828C404.013 169.317 402.986 170.985 401.959 172.833C400.933 174.681 400.06 176.452 399.341 178.146C398.674 179.789 398.34 181.072 398.34 181.996C398.34 182.817 398.648 183.51 399.264 184.075C399.88 184.588 400.881 184.845 402.267 184.845C403.191 184.845 404.295 184.64 405.578 184.229C406.862 183.818 408.068 183.356 409.197 182.843C410.378 182.278 411.225 181.842 411.738 181.534C413.073 180.713 414.536 179.635 416.127 178.3C417.77 176.914 419.387 175.348 420.978 173.603C421.697 172.884 422.185 172.525 422.441 172.525C422.595 172.525 422.672 172.628 422.672 172.833C422.672 173.244 422.287 173.911 421.517 174.835C420.285 176.324 418.899 177.761 417.359 179.147C415.871 180.482 414.202 181.714 412.354 182.843C410.25 184.126 408.222 185.05 406.271 185.615C404.372 186.18 402.601 186.462 400.958 186.462ZM436.061 159.512C435.188 159.512 434.418 159.23 433.751 158.665C433.135 158.1 432.827 157.459 432.827 156.74C432.827 155.303 433.802 154.584 435.753 154.584C436.471 154.584 437.19 154.841 437.909 155.354C438.627 155.816 438.987 156.406 438.987 157.125C438.987 157.741 438.653 158.306 437.986 158.819C437.318 159.281 436.677 159.512 436.061 159.512ZM421.816 186.847C420.686 186.847 419.762 186.488 419.044 185.769C418.274 184.999 417.889 183.664 417.889 181.765C417.889 180.687 418.145 179.455 418.659 178.069C419.121 176.632 419.711 175.194 420.43 173.757C421.2 172.32 421.944 171.036 422.663 169.907C425.537 165.236 427.899 162.874 429.747 162.823C430.209 162.823 430.773 163.028 431.441 163.439C432.108 163.798 432.442 164.209 432.442 164.671C432.442 164.671 430.491 167.186 426.59 172.217C422.74 177.196 420.815 180.738 420.815 182.843C420.815 184.486 421.456 185.307 422.74 185.307C423.561 185.307 424.613 184.973 425.897 184.306C427.231 183.587 428.617 182.689 430.055 181.611C431.492 180.533 432.852 179.378 434.136 178.146C435.47 176.914 436.548 175.785 437.37 174.758C437.883 174.091 438.319 173.629 438.679 173.372C439.089 173.115 439.346 172.987 439.449 172.987C439.654 172.987 439.757 173.141 439.757 173.449C439.757 173.706 439.449 174.219 438.833 174.989C438.268 175.759 437.472 176.657 436.446 177.684C435.214 178.916 433.853 180.251 432.365 181.688C430.876 183.125 429.259 184.357 427.514 185.384C425.768 186.359 423.869 186.847 421.816 186.847ZM441.573 186.385C440.033 186.385 438.724 185.974 437.646 185.153C436.568 184.28 435.952 183.228 435.798 181.996C435.592 180.353 435.823 178.711 436.491 177.068C437.209 175.374 438.159 173.757 439.34 172.217C440.572 170.677 441.881 169.24 443.267 167.905C448.708 162.464 453.61 159.743 457.974 159.743C459.462 159.743 460.463 160.128 460.977 160.898C461.182 161.155 461.413 161.745 461.67 162.669C467.419 153.326 471.423 148.655 473.682 148.655C474.195 148.655 474.734 148.783 475.299 149.04C475.863 149.297 476.146 149.63 476.146 150.041C476.146 150.298 476.017 150.631 475.761 151.042C474.221 152.941 472.681 154.841 471.141 156.74C469.601 158.588 468.086 160.462 466.598 162.361C464.082 165.544 462.055 168.316 460.515 170.677C458.975 173.038 457.871 175.04 457.204 176.683C456.998 177.196 456.793 177.838 456.588 178.608C456.434 179.327 456.357 180.071 456.357 180.841C456.357 181.816 456.562 182.663 456.973 183.382C457.383 184.101 458.128 184.46 459.206 184.46C460.9 184.46 462.979 183.639 465.443 181.996C467.907 180.353 470.781 177.658 474.067 173.911C474.272 173.706 474.452 173.526 474.606 173.372C474.811 173.218 475.016 173.115 475.222 173.064C475.684 172.961 475.915 173.064 475.915 173.372C475.915 173.526 475.761 173.808 475.453 174.219C473.861 176.118 472.09 177.992 470.14 179.84C468.189 181.688 466.187 183.228 464.134 184.46C462.132 185.641 460.258 186.231 458.513 186.231C456.767 186.231 455.535 185.641 454.817 184.46C454.098 183.279 453.739 181.945 453.739 180.456C453.739 178.916 454.021 177.504 454.586 176.221L448.349 182.458C446.963 183.844 445.679 184.845 444.499 185.461C443.369 186.077 442.394 186.385 441.573 186.385ZM440.88 184.691C443.087 184.691 446.757 181.662 451.891 175.605C452.147 175.297 453.046 174.168 454.586 172.217C456.126 170.215 458.307 167.315 461.131 163.516C460.771 162.9 460.155 162.592 459.283 162.592C456.1 162.592 451.839 165.107 446.501 170.138C441.47 174.809 438.955 178.736 438.955 181.919C438.955 183.767 439.596 184.691 440.88 184.691ZM476.284 187.001C474.641 187.001 473.153 186.488 471.818 185.461C470.483 184.383 469.816 182.971 469.816 181.226C469.816 177.581 472.049 173.423 476.515 168.752C481.084 164.029 485.165 161.668 488.758 161.668C489.939 161.668 490.888 162.002 491.607 162.669C492.377 163.285 492.762 164.055 492.762 164.979C492.762 167.854 490.478 170.677 485.909 173.449C481.854 175.913 478.44 177.145 475.668 177.145C475.257 177.145 474.898 177.094 474.59 176.991C473.82 178.377 473.435 179.84 473.435 181.38C473.435 184.049 474.693 185.384 477.208 185.384C479.775 185.384 483.086 183.664 487.141 180.225C490.272 177.71 492.942 175.04 495.149 172.217C495.611 171.601 496.022 171.293 496.381 171.293C496.689 171.293 496.843 171.447 496.843 171.755C496.843 172.063 496.638 172.499 496.227 173.064C494.79 174.963 493.25 176.709 491.607 178.3C489.964 179.891 488.193 181.354 486.294 182.689C482.341 185.564 479.005 187.001 476.284 187.001ZM476.746 175.451C478.697 175.451 481.238 174.476 484.369 172.525C485.396 171.806 486.397 171.011 487.372 170.138C488.399 169.214 489.22 168.29 489.836 167.366C490.503 166.442 490.837 165.621 490.837 164.902C490.837 164.235 490.298 163.901 489.22 163.901C487.68 163.901 485.524 165.056 482.752 167.366C481.417 168.495 480.134 169.727 478.902 171.062C477.67 172.397 476.618 173.808 475.745 175.297C476.053 175.4 476.387 175.451 476.746 175.451Z" fill="white"/>
</svg>
